<svg width="312" height="268" viewBox="0 0 312 268" fill="none" xmlns="http://www.w3.org/2000/svg">
<path fill-rule="evenodd" clip-rule="evenodd" d="M211.455 -91.7287C260.635 -89.7928 312.368 -74.6516 342.397 -43.1278C370.161 -13.9805 351.506 27.4069 359.437 63.6227C365.812 92.7386 389.609 118.566 384.209 147.81C378.227 180.209 359.156 211.128 328.281 232.364C295.945 254.605 253.117 273.293 211.455 266.634C171.075 260.179 158.497 217.848 123.997 199.709C86.2502 179.862 20.4406 190.739 3.18649 157.132C-13.7161 124.209 41.6002 95.2891 52.6753 60.7883C64.9433 22.5713 39.4456 -23.5986 70.9022 -53.8145C103.492 -85.1187 160.882 -93.7194 211.455 -91.7287Z" fill="#5784F9"/>
</svg>
