<svg width="463" height="789" viewBox="0 0 463 789" fill="none" xmlns="http://www.w3.org/2000/svg">
<g filter="url(#filter0_d_207_295)">
<path fill-rule="evenodd" clip-rule="evenodd" d="M-412.652 254.511C-389.944 157.774 -334.665 61.8284 -248.12 16.2207C-168.099 -25.9487 -75.8144 29.4289 13.8509 29.7537C85.9379 30.0149 156.547 -5.75261 224.616 17.9334C300.026 44.1744 367.08 95.7342 406.604 166.422C447.999 240.457 477.028 333.737 445.767 413.458C415.468 490.727 309.446 496.913 253.32 557.33C191.91 623.435 193.783 758.855 106.94 778.189C21.8666 797.129 -27.083 674.529 -105.657 637.249C-192.694 595.953 -312.658 626.074 -373.478 550.248C-436.489 471.691 -436.003 353.988 -412.652 254.511Z" fill="#5784F9"/>
</g>
<defs>
<filter id="filter0_d_207_295" x="-431.138" y="0.38829" width="894.061" height="787.776" filterUnits="userSpaceOnUse" color-interpolation-filters="sRGB">
<feFlood flood-opacity="0" result="BackgroundImageFix"/>
<feColorMatrix in="SourceAlpha" type="matrix" values="0 0 0 0 0 0 0 0 0 0 0 0 0 0 0 0 0 0 127 0" result="hardAlpha"/>
<feOffset dy="4"/>
<feGaussianBlur stdDeviation="2"/>
<feComposite in2="hardAlpha" operator="out"/>
<feColorMatrix type="matrix" values="0 0 0 0 0 0 0 0 0 0 0 0 0 0 0 0 0 0 0.25 0"/>
<feBlend mode="normal" in2="BackgroundImageFix" result="effect1_dropShadow_207_295"/>
<feBlend mode="normal" in="SourceGraphic" in2="effect1_dropShadow_207_295" result="shape"/>
</filter>
</defs>
</svg>
