<svg width="590" height="910" viewBox="0 0 590 910" fill="none" xmlns="http://www.w3.org/2000/svg">
<path fill-rule="evenodd" clip-rule="evenodd" d="M-399.444 298.664C-373.064 185.56 -309.726 73.1751 -211.22 19.3738C-120.141 -30.3716 -15.7587 33.7123 85.9979 33.5271C167.806 33.3782 248.164 -8.83236 325.264 18.3975C410.68 48.5645 486.453 108.349 530.863 190.643C577.375 276.833 609.731 385.575 573.752 478.863C538.88 569.281 418.52 577.172 354.443 648.075C284.335 725.653 285.608 883.773 186.93 906.896C90.2635 929.548 35.4837 786.695 -53.4525 743.657C-151.968 695.984 -288.302 731.911 -356.848 643.751C-427.863 552.416 -426.571 414.971 -399.444 298.664Z" fill="#5784F9"/>
</svg>
